<svg width="220" height="192" viewBox="0 0 220 192" fill="none" xmlns="http://www.w3.org/2000/svg">
<path d="M32.4786 123.305C32.0613 123.305 31.6454 123.137 31.3403 122.805L14.1983 104.168C13.6199 103.541 13.6609 102.562 14.2907 101.984C14.9179 101.406 15.8977 101.445 16.4761 102.076L33.6168 120.713C34.1952 121.34 34.1542 122.319 33.5244 122.897C33.2273 123.171 32.8523 123.305 32.4786 123.305Z" fill="white"/>
<path d="M184.178 123.305C183.805 123.305 183.428 123.169 183.133 122.897C182.504 122.319 182.463 121.34 183.04 120.713L200.181 102.076C200.757 101.446 201.738 101.407 202.365 101.984C202.993 102.562 203.034 103.541 202.457 104.168L185.317 122.805C185.011 123.137 184.596 123.305 184.178 123.305Z" fill="white"/>
<path d="M155.903 114.76C155.985 120.626 151.295 125.447 145.432 125.53C139.566 125.612 134.744 120.924 134.662 115.059C134.58 109.192 139.268 104.371 145.133 104.289C150.995 104.207 155.82 108.894 155.903 114.76Z" fill="white"/>
<path d="M123.64 117.322C123.346 117.322 123.049 117.238 122.785 117.062C122.074 116.589 121.882 115.629 122.356 114.918C127.344 107.424 135.688 102.874 144.674 102.75C144.799 102.747 144.929 102.746 145.055 102.746C153.9 102.746 162.2 107.04 167.325 114.286C167.817 114.984 167.652 115.949 166.955 116.443C166.255 116.935 165.293 116.769 164.799 116.073C160.19 109.555 152.709 105.773 144.716 105.841C136.75 105.954 129.353 109.987 124.928 116.633C124.631 117.079 124.141 117.322 123.64 117.322Z" fill="white"/>
<path d="M86.1988 114.76C86.2807 120.626 81.5905 125.447 75.7277 125.53C69.8622 125.612 65.04 120.924 64.9581 115.059C64.8762 109.192 69.5638 104.371 75.4292 104.289C81.292 104.207 86.117 108.894 86.1988 114.76Z" fill="white"/>
<path d="M53.9363 117.322C53.6418 117.322 53.3447 117.238 53.0806 117.062C52.3702 116.589 52.1774 115.629 52.6515 114.918C57.6401 107.424 65.9841 102.874 74.9697 102.75C75.0952 102.747 75.2246 102.746 75.3513 102.746C84.1957 102.746 92.496 107.04 97.6207 114.286C98.1132 114.984 97.9482 115.949 97.251 116.443C96.5525 116.935 95.5898 116.769 95.0947 116.073C90.4863 109.555 82.9756 105.773 75.012 105.841C67.0457 105.954 59.6485 109.987 55.2237 116.633C54.9266 117.079 54.4367 117.322 53.9363 117.322Z" fill="white"/>
<path d="M110.001 134.569C109.148 134.569 108.455 133.875 108.455 133.022V113.572C108.455 112.719 109.148 112.026 110.001 112.026C110.854 112.026 111.548 112.719 111.548 113.572V133.022C111.549 133.875 110.856 134.569 110.001 134.569Z" fill="white"/>
<path d="M109.68 150.901C105.447 150.901 97.4492 149.635 94.0609 147.345C93.3531 146.867 93.1669 145.906 93.645 145.198C94.1243 144.49 95.0856 144.305 95.792 144.782C98.5253 146.629 105.845 147.807 109.682 147.807C113.68 147.807 121.306 146.468 124.159 144.369C124.847 143.862 125.816 144.01 126.321 144.698C126.828 145.386 126.68 146.353 125.992 146.859C122.456 149.46 114.101 150.901 109.68 150.901Z" fill="white"/>
<path d="M190.501 81.0188C189.849 81.0188 189.195 81.0452 188.53 81.0914L188.647 55.5328C188.647 36.4193 173.73 21.1668 154.617 21.1668C151.613 21.1668 148.714 21.5893 145.935 22.309C136.719 11.6873 124.1 4.11848 109.776 1.26631V1.25179C109.776 1.25179 109.589 1.21745 109.237 1.16067C105.308 0.413301 101.26 0 97.1111 0C92.4829 0 88.037 0.50045 83.7812 1.42212C59.6117 5.30424 27.0877 21.6844 25.383 81.3133C11.0601 83.3217 0 95.6507 0 110.519C0 126.783 13.2335 140.015 29.5002 140.015C30.1643 140.015 30.8259 139.96 31.4887 139.915C43.3253 182.773 66.6233 182.432 66.6233 182.432C66.6233 182.432 64.4128 185.184 61.4128 171.269C75.2273 181.418 92.1568 187.22 110.001 187.22C142.074 187.22 171.205 168.497 184.575 139.414C186.528 139.813 188.515 140.015 190.501 140.015C206.766 140.015 220 126.784 220 110.519C220 94.2536 206.766 81.0188 190.501 81.0188ZM29.5002 136.921C14.9382 136.921 3.09381 125.078 3.09381 110.519C3.09381 97.3871 12.7371 86.496 25.309 84.477C25.0199 105.809 27.188 123.028 30.6872 136.884C30.2911 136.903 29.895 136.921 29.5002 136.921ZM190.501 136.921C188.334 136.921 186.169 136.655 184.06 136.126L182.796 135.809L182.271 137.002C169.642 165.628 141.275 184.125 110.001 184.125C91.6273 184.125 74.2621 177.735 60.4977 166.664C57.6376 151.102 55.7401 127.936 58.9422 96.1525C66.3156 22.9626 101.97 36.5513 108.847 39.8934C109.232 40.0928 109.613 40.2869 110.001 40.4969C166.062 23.0986 170.521 67.335 170.521 67.335L170.808 86.2861L170.957 96.1511L187.64 84.2724C188.63 84.1641 189.569 84.1086 190.502 84.1086C205.063 84.1086 216.908 95.9531 216.908 110.515C216.906 125.078 205.062 136.921 190.501 136.921Z" fill="white"/>
<path d="M157.212 108.401C156.913 108.401 156.615 108.315 156.349 108.135C155.64 107.659 155.454 106.697 155.932 105.99L161.012 98.4552C161.488 97.7448 162.45 97.5574 163.157 98.038C163.867 98.5147 164.053 99.476 163.575 100.184L158.495 107.718C158.197 108.162 157.708 108.401 157.212 108.401Z" fill="white"/>
<path d="M163.853 111.841C163.416 111.841 162.983 111.657 162.676 111.299C162.121 110.65 162.197 109.674 162.845 109.119L168.834 103.996C169.485 103.439 170.461 103.518 171.014 104.165C171.57 104.815 171.493 105.79 170.845 106.346L164.857 111.47C164.566 111.719 164.207 111.841 163.853 111.841Z" fill="white"/>
<path d="M62.5849 108.401C62.0884 108.401 61.5999 108.162 61.3028 107.718L56.223 100.184C55.745 99.4762 55.9312 98.5149 56.6403 98.0382C57.3507 97.5589 58.3093 97.7477 58.786 98.4554L63.8658 105.99C64.3438 106.698 64.1576 107.659 63.4485 108.136C63.1818 108.317 62.8807 108.401 62.5849 108.401Z" fill="white"/>
<path d="M127.266 137.654C127.266 138.858 126.291 139.834 125.086 139.834C123.882 139.834 122.906 138.858 122.906 137.654C122.906 136.45 123.882 135.474 125.086 135.474C126.291 135.474 127.266 136.45 127.266 137.654Z" fill="#979797"/>
</svg>
