<svg width="220" height="174" viewBox="0 0 220 174" fill="none" xmlns="http://www.w3.org/2000/svg">
<g clip-path="url(#clip0_1700_36)">
<path d="M29.99 66.0855C31.0622 66.0855 32.1185 66.1529 33.1604 66.2691C42.871 32.7204 73.8144 8.19043 110.491 8.19043C147.169 8.19043 178.114 32.7204 187.826 66.2691C188.864 66.1515 189.921 66.0855 190.992 66.0855C206.43 66.0855 218.945 78.5981 218.945 94.0381C218.945 109.475 206.43 121.988 190.992 121.988C188.641 121.988 186.359 121.694 184.177 121.147C171.697 149.443 143.405 169.193 110.492 169.193C77.5842 169.193 49.2897 149.443 36.8088 121.147C34.6261 121.694 32.343 121.988 29.9913 121.988C14.5553 121.988 2.04004 109.475 2.04004 94.0381C2.03872 78.5981 14.5526 66.0855 29.99 66.0855Z" fill="#282A2E"/>
<path d="M188.012 106.824C187.639 106.824 187.262 106.689 186.966 106.416C186.338 105.837 186.297 104.86 186.874 104.232L204.015 85.5934C204.593 84.9649 205.572 84.924 206.199 85.501C206.827 86.0794 206.868 87.0565 206.291 87.685L189.151 106.323C188.847 106.656 188.431 106.824 188.012 106.824Z" fill="white"/>
<path d="M36.3122 106.824C35.895 106.824 35.479 106.657 35.174 106.324L18.0332 87.687C17.4549 87.0585 17.4958 86.08 18.1257 85.503C18.7542 84.9246 19.734 84.9655 20.311 85.5954L37.4518 104.234C38.0301 104.862 37.9892 105.841 37.3593 106.418C37.0622 106.69 36.6872 106.824 36.3122 106.824Z" fill="white"/>
<path d="M123.565 118.599H97.419C89.4105 118.599 82.8584 125.151 82.8584 133.159V159.305C82.8584 167.313 89.4105 173.865 97.419 173.865H123.565C131.572 173.865 138.124 167.313 138.124 159.305V133.159C138.124 125.151 131.572 118.599 123.565 118.599ZM124.278 141.137C124.278 143.974 121.979 146.273 119.143 146.273H114.746V134.802H106.527V146.273H102.129C99.2927 146.273 96.9938 143.974 96.9938 141.137V132.605C96.9938 129.768 99.2927 127.469 102.129 127.469H119.143C121.979 127.469 124.278 129.768 124.278 132.605V141.137Z" fill="white"/>
<path d="M190.5 64.5385C189.834 64.5385 189.15 64.5636 188.454 64.6138C181.562 42.1424 165.344 24.1724 144.851 14.4909C134.91 7.54397 123.257 2.7283 110.44 0.854579C96.9896 -1.11025 83.8353 0.379218 71.8641 4.64163C74.9342 7.27988 78.263 9.63821 81.7926 11.7126C58.1935 20.4316 39.1685 39.7656 31.5468 64.6151C30.851 64.5649 30.1736 64.5398 29.4975 64.5398C13.2322 64.5385 0 77.7721 0 94.0373C0 110.301 13.2322 123.535 29.4988 123.535C31.4848 123.535 33.4734 123.333 35.425 122.934C48.7959 152.016 77.9276 170.738 110 170.738C142.074 170.738 171.207 152.016 184.576 122.935C186.527 123.333 188.514 123.535 190.501 123.535C206.766 123.535 220.001 110.303 220.001 94.0373C220 77.7721 206.765 64.5385 190.5 64.5385ZM190.5 120.441C188.333 120.441 186.167 120.174 184.06 119.646L182.796 119.329L182.271 120.522C169.643 149.146 141.275 167.643 109.999 167.643C78.7239 167.643 50.3566 149.148 37.7292 120.522L37.2036 119.329L35.94 119.646C33.8312 120.174 31.6657 120.441 29.4988 120.441C14.9382 120.441 3.09381 108.597 3.09381 94.0373C3.09381 79.4768 14.9382 67.6323 29.4988 67.6323C30.4707 67.6323 31.4491 67.6891 32.4963 67.8053L33.7903 67.9505L33.9052 67.5544C35.5174 64.1939 51.7484 31.7003 80.9145 22.1112L80.8696 22.0874C89.3997 25.9325 98.8567 28.0822 108.821 28.0822C119.388 28.0822 129.387 25.6658 138.312 21.3717C167.362 31.4203 184.756 64.9399 186.129 67.6614L186.214 67.9519L187.509 67.8066C188.535 67.6904 189.543 67.6336 190.501 67.6336C205.063 67.6336 216.908 79.4781 216.908 94.0387C216.906 108.597 205.062 120.441 190.5 120.441Z" fill="white"/>
<path d="M96.6671 113.331H55.7623C51.8947 113.331 48.748 110.184 48.748 106.317V85.0259C48.748 81.1583 51.8947 78.0117 55.7623 78.0117H96.6671C100.535 78.0117 103.681 81.1583 103.681 85.0259V106.316C103.681 110.184 100.535 113.331 96.6671 113.331ZM55.7623 81.1042C53.5994 81.1042 51.8405 82.863 51.8405 85.0259V106.316C51.8405 108.478 53.5994 110.237 55.7623 110.237H96.6671C98.83 110.237 100.589 108.478 100.589 106.316V85.0259C100.589 82.863 98.83 81.1042 96.6671 81.1042H55.7623Z" fill="#979797"/>
<path d="M163.271 113.331H122.366C118.498 113.331 115.352 110.184 115.352 106.317V85.0259C115.352 81.1583 118.498 78.0117 122.366 78.0117H163.271C167.138 78.0117 170.285 81.1583 170.285 85.0259V106.316C170.286 110.184 167.138 113.331 163.271 113.331ZM122.366 81.1042C120.203 81.1042 118.444 82.863 118.444 85.0259V106.316C118.444 108.478 120.203 110.237 122.366 110.237H163.271C165.434 110.237 167.192 108.478 167.192 106.316V85.0259C167.192 82.863 165.434 81.1042 163.271 81.1042H122.366Z" fill="#979797"/>
<path d="M116.898 89.4932H103.102V92.5856H116.898V89.4932Z" fill="#979797"/>
<path d="M110.493 116.19C109.64 116.19 108.946 115.497 108.946 114.644V98.0287C108.946 97.1757 109.64 96.4824 110.493 96.4824C111.346 96.4824 112.039 97.1757 112.039 98.0287V114.644C112.039 115.497 111.346 116.19 110.493 116.19Z" fill="white"/>
<path d="M75.6494 103.653C69.5133 103.653 63.6175 101.018 59.5043 96.3386C58.9418 95.6982 59.0038 94.7211 59.6456 94.1559C60.2833 93.596 61.2631 93.6555 61.827 94.2972C65.8372 98.8594 71.828 101.156 77.84 100.428C83.8586 99.7044 89.1312 96.0613 91.9437 90.6792C92.3412 89.9226 93.2721 89.6307 94.0314 90.0256C94.788 90.4217 95.0798 91.3552 94.685 92.1132C91.3984 98.3972 85.2398 102.653 78.2084 103.497C77.3554 103.601 76.4998 103.653 75.6494 103.653Z" fill="white"/>
<path d="M144.163 103.653C143.311 103.653 142.457 103.602 141.601 103.499C134.571 102.656 128.41 98.3985 125.125 92.1159C124.729 91.3592 125.022 90.4244 125.777 90.0295C126.531 89.6308 127.467 89.9252 127.863 90.6818C130.679 96.064 135.952 99.7071 141.97 100.431C147.994 101.154 153.975 98.862 157.982 94.2999C158.548 93.6581 159.525 93.5961 160.163 94.1586C160.805 94.7224 160.868 95.6995 160.304 96.3413C156.194 101.018 150.3 103.653 144.163 103.653Z" fill="white"/>
<path d="M97.7988 132.229C97.7988 132.229 108.646 138.738 123.472 132.229H97.7988Z" fill="#979797"/>
</g>
<defs>
<clipPath id="clip0_1700_36">
<rect width="220" height="173.865" fill="white"/>
</clipPath>
</defs>
</svg>
