<svg width="220" height="166" viewBox="0 0 220 166" fill="none" xmlns="http://www.w3.org/2000/svg">
<g clip-path="url(#clip0_1700_117)">
<path d="M187.521 101.112C187.147 101.112 186.771 100.978 186.475 100.704C185.847 100.126 185.806 99.1476 186.383 98.5204L203.525 79.8835C204.105 79.2549 205.082 79.214 205.71 79.791C206.339 80.3694 206.38 81.3479 205.803 81.9751L188.661 100.612C188.354 100.945 187.938 101.112 187.521 101.112Z" fill="white"/>
<path d="M35.8229 101.112C35.4057 101.112 34.9897 100.945 34.6847 100.612L17.5412 81.9751C16.9628 81.3479 17.0038 80.3694 17.6323 79.7911C18.2595 79.2114 19.2393 79.2523 19.8163 79.8835L36.9598 98.5191C37.5382 99.1463 37.4973 100.125 36.8687 100.703C36.5716 100.978 36.1966 101.112 35.8229 101.112Z" fill="white"/>
<path d="M190.5 58.8267C189.833 58.8267 189.148 58.8531 188.454 58.902C177.967 24.7048 145.889 0.932617 109.998 0.932617C74.1093 0.932617 42.0341 24.7048 31.547 58.9033C30.8498 58.8531 30.1645 58.8267 29.4964 58.8267C13.2323 58.8267 0 72.0617 0 88.3271C0 104.591 13.2323 117.823 29.4977 117.823C31.485 117.823 33.4736 117.621 35.4252 117.223C48.7962 146.306 77.9268 165.028 109.999 165.028C142.075 165.028 171.208 146.306 184.575 117.223C186.528 117.621 188.514 117.823 190.5 117.823C206.765 117.823 220 104.592 220 88.3271C220 72.0617 206.765 58.8267 190.5 58.8267ZM120.852 148.527H99.437C93.8871 148.527 89.9561 143.108 91.6793 137.831L96.153 124.131H124.136L128.61 137.831C130.333 143.108 126.402 148.527 120.852 148.527ZM190.5 114.73C188.334 114.73 186.169 114.463 184.06 113.935L182.796 113.618L182.271 114.81C181.526 116.499 180.722 118.151 179.869 119.768C173.946 127.711 164.501 132.871 153.833 132.871C144.461 132.871 135.946 128.886 130.016 122.537C125.26 116.808 118.086 113.157 110.057 113.157C102.18 113.157 95.1363 116.683 90.38 122.227C84.4379 128.763 75.814 132.886 66.2856 132.886C55.413 132.886 45.8053 127.531 39.9082 119.329C39.141 117.851 38.4081 116.348 37.7307 114.811L37.2052 113.619L35.9402 113.936C33.8314 114.464 31.6632 114.731 29.4977 114.731C14.9383 114.731 3.09251 102.888 3.09251 88.3284C3.09251 73.7664 14.9383 61.9219 29.4977 61.9219C30.1091 61.9219 30.7297 61.9522 31.3582 61.9985C40.6384 65.0316 50.5392 66.6887 60.8321 66.6887C83.6655 66.6887 104.605 58.6234 120.98 45.193C118.438 52.9599 115.832 60.2515 114.325 62.5689C114.325 62.5689 141.012 40.3179 146.657 13.6103C148.882 23.2708 157.979 48.4466 186.187 62.1516L186.213 62.2441L187.51 62.0975C188.532 61.98 189.538 61.9232 190.501 61.9232C205.063 61.9232 216.908 73.769 216.908 88.3297C216.906 102.885 205.062 114.73 190.5 114.73Z" fill="white"/>
<path d="M110.145 147.347L124.136 124.131L110.145 133.036L96.1533 124.131L110.145 147.347Z" fill="white"/>
<path d="M124.136 124.131C124.136 131.858 117.872 138.121 110.146 138.121C102.419 138.121 96.1533 131.857 96.1533 124.131" fill="#979797"/>
<path d="M156.047 93.5065C156.128 99.3719 151.438 104.193 145.575 104.276C139.71 104.358 134.888 99.6704 134.806 93.8049C134.724 87.9381 139.413 83.1171 145.277 83.0352C151.14 82.9534 155.965 87.6397 156.047 93.5065Z" fill="white"/>
<path d="M123.785 96.068C123.49 96.068 123.193 95.9835 122.929 95.8079C122.219 95.3352 122.026 94.3752 122.5 93.6635C127.489 86.1712 135.831 81.6209 144.816 81.4955C153.799 81.3013 162.27 85.6813 167.47 93.0323C167.962 93.7295 167.797 94.6947 167.1 95.1886C166.403 95.6811 165.437 95.5147 164.944 94.8189C160.335 88.2998 152.79 84.481 144.861 84.5866C136.896 84.6989 129.499 88.7342 125.074 95.3787C124.775 95.8251 124.285 96.068 123.785 96.068Z" fill="white"/>
<path d="M86.3435 93.5065C86.4254 99.3719 81.7351 104.193 75.8723 104.276C70.0068 104.358 65.1845 99.6704 65.1026 93.8049C65.0208 87.9381 69.7084 83.1171 75.5738 83.0352C81.4367 82.9534 86.2616 87.6397 86.3435 93.5065Z" fill="white"/>
<path d="M54.0821 96.0682C53.7877 96.0682 53.4906 95.9837 53.2265 95.808C52.5161 95.3353 52.3233 94.3753 52.796 93.6636C57.7847 86.1713 66.1287 81.621 75.113 81.4956C84.0842 81.3332 92.5682 85.6828 97.7642 93.0324C98.2567 93.7296 98.0916 94.6949 97.3944 95.1887C96.6972 95.6813 95.7333 95.5149 95.2394 94.819C90.631 88.2999 83.1361 84.4693 75.1553 84.5868C67.1903 84.699 59.7931 88.7343 55.3682 95.3789C55.0725 95.8252 54.5813 96.0682 54.0821 96.0682Z" fill="white"/>
<path d="M110.148 109.331C109.295 109.331 108.602 108.637 108.602 107.784V92.3177C108.602 91.4647 109.295 90.7715 110.148 90.7715C111.001 90.7715 111.694 91.4647 111.694 92.3177V107.784C111.694 108.637 111.001 109.331 110.148 109.331Z" fill="white"/>
</g>
<defs>
<clipPath id="clip0_1700_117">
<rect width="220" height="164.095" fill="white" transform="translate(0 0.932617)"/>
</clipPath>
</defs>
</svg>
