<svg width="220" height="199" viewBox="0 0 220 199" fill="none" xmlns="http://www.w3.org/2000/svg">
<g clip-path="url(#clip0_1700_147)">
<path d="M32.2422 57.3309L65.9801 38.2383C48.8378 59.1875 44.6321 70.2199 44.1449 91.8122C43.3209 128.347 72.3051 159.993 108.841 160.725C145.906 161.467 175.907 133.52 175.907 96.6424C175.907 81.9087 171.071 68.3066 162.901 57.3309H186.809L200.421 141.518C205.113 170.549 182.876 196.953 153.469 197.262L67.2477 198.17C37.6099 198.483 14.7526 172.161 19.2158 142.86L32.2422 57.3309Z" fill="white"/>
<path d="M187.522 100.181C187.148 100.181 186.773 100.046 186.476 99.7729C185.848 99.1946 185.807 98.2161 186.385 97.5889L203.527 78.9519C204.103 78.322 205.083 78.2811 205.711 78.8594C206.34 79.4391 206.381 80.4162 205.802 81.0448L188.66 99.6818C188.355 100.013 187.939 100.181 187.522 100.181Z" fill="white"/>
<path d="M35.8217 100.181C35.4044 100.181 34.9885 100.013 34.6835 99.6803L17.5412 81.0433C16.9628 80.4161 17.0038 79.4376 17.6323 78.8579C18.2595 78.2796 19.2393 78.3192 19.8164 78.9504L36.9586 97.5874C37.537 98.2146 37.4961 99.1931 36.8675 99.7715C36.5704 100.046 36.1954 100.181 35.8217 100.181Z" fill="white"/>
<path d="M125.169 98.6762C124.868 98.6762 124.563 98.5877 124.295 98.4042C123.591 97.9209 123.411 96.9582 123.894 96.2544C128.471 89.5835 136.027 85.5996 144.104 85.5996C152.18 85.5996 159.736 89.5835 164.314 96.2544C164.797 96.9582 164.618 97.9209 163.914 98.4042C163.209 98.8888 162.247 98.7079 161.764 98.0041C157.763 92.1742 151.161 88.6948 144.104 88.6948C137.046 88.6948 130.445 92.1755 126.444 98.0041C126.146 98.4411 125.661 98.6762 125.169 98.6762Z" fill="white"/>
<path d="M59.3054 98.6762C59.0043 98.6762 58.6993 98.5877 58.4313 98.4042C57.7275 97.9209 57.5479 96.9582 58.0312 96.2544C62.6092 89.5835 70.1636 85.5996 78.2422 85.5996C86.3168 85.5996 93.8739 89.5835 98.4532 96.2531C98.9365 96.9582 98.7569 97.9209 98.0531 98.4042C97.3493 98.8888 96.3867 98.7079 95.9034 98.0054C91.9011 92.1742 85.2988 88.6948 78.2422 88.6948C71.1843 88.6948 64.582 92.1755 60.581 98.0041C60.2826 98.4411 59.7979 98.6762 59.3054 98.6762Z" fill="white"/>
<path d="M110.56 107.687C109.706 107.687 109.014 106.994 109.014 106.141V90.6742C109.014 89.8212 109.706 89.1279 110.56 89.1279C111.414 89.1279 112.106 89.8212 112.106 90.6742V106.141C112.105 106.994 111.413 107.687 110.56 107.687Z" fill="white"/>
<path d="M155.694 90.8636C155.323 90.8636 154.95 90.7316 154.654 90.4622C154.023 89.8865 153.976 88.9106 154.55 88.2768L161.154 81.009C161.728 80.3765 162.707 80.3289 163.338 80.9047C163.969 81.4791 164.017 82.4562 163.442 83.0887L156.839 90.3566C156.534 90.692 156.115 90.8636 155.694 90.8636Z" fill="white"/>
<path d="M160.724 95.8235C160.258 95.8235 159.799 95.6149 159.495 95.2174C158.976 94.5387 159.105 93.5682 159.784 93.0492L168.103 86.6859C168.78 86.1643 169.752 86.2951 170.271 86.9751C170.79 87.6525 170.661 88.623 169.982 89.142L161.663 95.5053C161.382 95.7205 161.052 95.8235 160.724 95.8235Z" fill="white"/>
<path d="M65.9813 90.8639C65.56 90.8639 65.1415 90.6936 64.8364 90.3569L58.2328 83.0877C57.6584 82.4552 57.7059 81.4781 58.3371 80.9037C58.9696 80.3293 59.9481 80.3768 60.5211 81.008L67.1248 88.2758C67.6992 88.9083 67.6517 89.8855 67.0205 90.4612C66.7247 90.7306 66.3523 90.8639 65.9813 90.8639Z" fill="white"/>
<path d="M60.9517 95.8239C60.6242 95.8239 60.2941 95.7209 60.0142 95.5043L51.6953 89.141C51.0165 88.6221 50.8871 87.6515 51.4061 86.9741C51.9237 86.2954 52.8942 86.1647 53.573 86.685L61.8919 93.0483C62.5706 93.5672 62.6987 94.5364 62.1811 95.2152C61.876 95.6139 61.4165 95.8239 60.9517 95.8239Z" fill="white"/>
<path d="M109.962 123.345C105.729 123.345 97.7308 122.077 94.3412 119.789C93.6334 119.311 93.4472 118.35 93.9252 117.642C94.4032 116.933 95.3659 116.751 96.0723 117.226C98.807 119.073 106.125 120.251 109.962 120.251C113.961 120.251 121.588 118.912 124.44 116.813C125.128 116.307 126.094 116.453 126.601 117.141C127.107 117.829 126.961 118.797 126.273 119.303C122.738 121.906 114.385 123.345 109.962 123.345Z" fill="white"/>
<path d="M190.502 57.8958C189.831 57.8958 189.147 57.9209 188.455 57.971C177.967 23.7736 145.89 0 109.999 0C74.1098 0 42.0344 23.7736 31.5472 57.971C30.854 57.9209 30.1673 57.8958 29.4965 57.8958C13.2324 57.8958 0 71.1295 0 87.395C0 103.659 13.2324 116.892 29.4979 116.892C31.4878 116.892 33.4764 116.689 35.4254 116.292C48.7951 145.374 77.9272 164.097 110 164.097C142.075 164.097 171.207 145.374 184.577 116.292C186.525 116.689 188.512 116.892 190.503 116.892C206.769 116.892 220.003 103.659 220.003 87.395C220 71.1295 206.768 57.8958 190.502 57.8958ZM190.502 113.798C188.331 113.798 186.164 113.531 184.062 113.003L182.799 112.684L182.272 113.878C169.645 142.505 141.278 161.002 110 161.002C78.7248 161.002 50.3572 142.506 37.731 113.878L37.2041 112.684L35.9391 113.003C33.8356 113.531 31.6687 113.798 29.4979 113.798C14.9384 113.798 3.09253 101.954 3.09253 87.395C3.09253 72.8342 14.9384 60.9896 29.4979 60.9896C30.4671 60.9896 31.4746 61.0477 32.494 61.1626L32.9245 61.2115C31.7545 73.4363 35.8229 82.0484 35.8229 82.0484C73.4495 48.2405 88.6903 14.4512 92.0654 6.10055C109.064 19.2461 131.93 37.4834 131.93 37.4834C152.132 52.3539 176.401 74.379 187.522 82.1065C187.522 82.1065 189.104 73.5037 186.248 61.3052L187.511 61.1626C188.525 61.0464 189.532 60.9896 190.502 60.9896C205.063 60.9896 216.909 72.8355 216.909 87.395C216.909 101.953 205.063 113.798 190.502 113.798Z" fill="white"/>
<path d="M199.488 105.864C199.488 108.23 197.57 110.15 195.202 110.15C192.836 110.15 190.917 108.232 190.917 105.864C190.917 103.498 192.836 101.579 195.202 101.579C197.57 101.579 199.488 103.498 199.488 105.864Z" fill="#979797"/>
<path d="M28.1936 105.864C28.1936 108.23 26.2749 110.15 23.9073 110.15C21.541 110.15 19.6211 108.232 19.6211 105.864C19.6211 103.498 21.5397 101.579 23.9073 101.579C26.2749 101.579 28.1936 103.498 28.1936 105.864Z" fill="#979797"/>
<path d="M96.6671 108.331H55.7623C51.8947 108.331 48.748 105.184 48.748 101.317V80.0259C48.748 76.1583 51.8947 73.0117 55.7623 73.0117H96.6671C100.535 73.0117 103.681 76.1583 103.681 80.0259V101.316C103.681 105.184 100.535 108.331 96.6671 108.331ZM55.7623 76.1042C53.5994 76.1042 51.8405 77.863 51.8405 80.0259V101.316C51.8405 103.478 53.5994 105.237 55.7623 105.237H96.6671C98.83 105.237 100.589 103.478 100.589 101.316V80.0259C100.589 77.863 98.83 76.1042 96.6671 76.1042H55.7623Z" fill="#979797"/>
<path d="M163.271 108.331H122.366C118.498 108.331 115.352 105.184 115.352 101.317V80.0259C115.352 76.1583 118.498 73.0117 122.366 73.0117H163.271C167.138 73.0117 170.285 76.1583 170.285 80.0259V101.316C170.286 105.184 167.138 108.331 163.271 108.331ZM122.366 76.1042C120.203 76.1042 118.444 77.863 118.444 80.0259V101.316C118.444 103.478 120.203 105.237 122.366 105.237H163.271C165.434 105.237 167.192 103.478 167.192 101.316V80.0259C167.192 77.863 165.434 76.1042 163.271 76.1042H122.366Z" fill="#979797"/>
<path d="M116.898 84.4932H103.102V87.5856H116.898V84.4932Z" fill="#979797"/>
</g>
<defs>
<clipPath id="clip0_1700_147">
<rect width="220" height="198.173" fill="white"/>
</clipPath>
</defs>
</svg>
