<svg width="220" height="199" viewBox="0 0 220 199" fill="none" xmlns="http://www.w3.org/2000/svg">
<g clip-path="url(#clip0_1705_39)">
<path d="M32.3775 58.511L65.985 38.2383C48.8427 59.1875 44.6371 70.2199 44.1498 91.8122C43.3258 128.347 72.3101 159.993 108.846 160.725C145.911 161.467 175.912 133.52 175.912 96.6424C175.912 81.9087 170.614 68.1191 162.906 57.3309L188.335 58.1511L193.805 142.95L197.186 198.631H83.6961C83.6961 198.631 74.2262 198.631 22.04 198.631L32.3775 58.511Z" fill="white"/>
<path d="M187.522 100.181C187.148 100.181 186.773 100.046 186.476 99.7729C185.848 99.1946 185.807 98.2161 186.385 97.5889L203.527 78.9519C204.103 78.322 205.083 78.2811 205.711 78.8594C206.34 79.4391 206.381 80.4162 205.802 81.0448L188.66 99.6818C188.355 100.013 187.939 100.181 187.522 100.181Z" fill="white"/>
<path d="M35.8217 100.181C35.4044 100.181 34.9885 100.013 34.6835 99.6803L17.5412 81.0433C16.9628 80.4161 17.0038 79.4376 17.6323 78.8579C18.2595 78.2796 19.2393 78.3192 19.8164 78.9504L36.9586 97.5874C37.537 98.2146 37.4961 99.1931 36.8675 99.7714C36.5704 100.046 36.1954 100.181 35.8217 100.181Z" fill="white"/>
<path d="M110.56 107.687C109.706 107.687 109.014 106.994 109.014 106.141V90.6742C109.014 89.8212 109.706 89.1279 110.56 89.1279C111.414 89.1279 112.106 89.8212 112.106 90.6742V106.141C112.105 106.994 111.413 107.687 110.56 107.687Z" fill="white"/>
<path d="M109.962 123.345C105.729 123.345 97.7308 122.077 94.3412 119.789C93.6334 119.311 93.4472 118.35 93.9252 117.642C94.4032 116.933 95.3659 116.751 96.0723 117.226C98.807 119.073 106.125 120.251 109.962 120.251C113.961 120.251 121.588 118.912 124.44 116.813C125.128 116.307 126.094 116.453 126.601 117.141C127.107 117.829 126.961 118.797 126.273 119.303C122.738 121.906 114.385 123.345 109.962 123.345Z" fill="white"/>
<path d="M190.502 57.8958C189.831 57.8958 189.147 57.9209 188.455 57.971C180.191 24.2024 145.89 0 109.999 0C74.1098 0 37.731 22.3572 32.494 57.8958C31.8008 57.8456 30.1673 57.8958 29.4965 57.8958C13.2324 57.8958 0 71.1295 0 87.395C0 103.659 13.2324 116.892 29.4979 116.892C31.4878 116.892 33.4764 116.689 35.4254 116.292C48.7951 145.374 77.9272 164.097 110 164.097C142.075 164.097 171.207 145.374 184.577 116.292C186.525 116.689 188.512 116.892 190.503 116.892C206.769 116.892 220.003 103.659 220.003 87.395C220 71.1295 206.768 57.8958 190.502 57.8958ZM190.502 113.798C188.331 113.798 186.164 113.531 184.062 113.003L182.799 112.684L182.272 113.878C169.645 142.505 141.278 161.002 110 161.002C78.7248 161.002 50.3572 142.506 37.731 113.878L37.2041 112.684L35.9391 113.003C33.8356 113.531 31.6687 113.798 29.4979 113.798C14.9384 113.798 3.09253 101.954 3.09253 87.395C3.09253 72.8342 14.9384 60.9896 29.4979 60.9896C30.4671 60.9896 31.4746 61.0477 32.494 61.1626L32.9245 61.2115C31.7545 73.4363 35.8229 82.0484 35.8229 82.0484C73.4495 48.2405 103.702 28.0814 109.999 22.3572C131.93 37.4834 131.93 37.4834 131.93 37.4834C152.132 52.3539 176.401 74.379 187.522 82.1065C187.522 82.1065 189.104 73.5037 186.248 61.3052L187.511 61.1626C188.525 61.0464 189.532 60.9896 190.502 60.9896C205.063 60.9896 216.909 72.8355 216.909 87.395C216.909 101.953 205.063 113.798 190.502 113.798Z" fill="white"/>
<path d="M155.902 91.7629C155.984 97.6286 151.294 102.45 145.43 102.533C139.565 102.615 134.742 97.9271 134.66 92.0613C134.578 86.1942 139.266 81.3745 145.132 81.2911C150.995 81.2091 155.82 85.8958 155.902 91.7629Z" fill="white"/>
<path d="M123.64 94.3235C123.346 94.3235 123.049 94.2402 122.785 94.0641C122.074 93.5908 121.882 92.6322 122.355 91.9197C127.343 84.4272 135.686 79.8776 144.673 79.7526C153.69 79.5697 162.127 83.9392 167.324 91.2892C167.817 91.9869 167.652 92.9509 166.954 93.4456C166.257 93.939 165.291 93.771 164.799 93.0759C160.19 86.5568 152.714 82.7547 144.716 82.8448C136.75 82.9577 129.353 86.991 124.928 93.6352C124.631 94.0802 124.141 94.3235 123.64 94.3235Z" fill="white"/>
<path d="M86.1981 91.7619C86.2802 97.6276 81.5894 102.449 75.7264 102.532C69.8606 102.614 65.0381 97.9261 64.9561 92.0604C64.8741 86.1933 69.5622 81.3735 75.4279 81.2901C81.291 81.2081 86.1161 85.8948 86.1981 91.7619Z" fill="white"/>
<path d="M53.9373 94.323C53.6428 94.323 53.3457 94.2397 53.0822 94.0635C52.371 93.5903 52.1787 92.6317 52.652 91.9192C57.6412 84.4267 65.9847 79.8771 74.9695 79.7521C75.0973 79.7494 75.225 79.748 75.3527 79.748C84.1977 79.748 92.4982 84.0422 97.6218 91.2886C98.1153 91.9864 97.9499 92.9504 97.2521 93.4451C96.5544 93.9399 95.5904 93.7705 95.097 93.0754C90.4883 86.5562 82.9877 82.7542 75.0139 82.8443C67.0481 82.9572 59.6511 86.9905 55.2266 93.6347C54.9268 94.0797 54.436 94.323 53.9373 94.323Z" fill="white"/>
<path d="M110.001 107.537C109.147 107.537 108.455 106.844 108.455 105.991V90.5734C108.455 89.7197 109.147 89.0273 110.001 89.0273C110.855 89.0273 111.547 89.7211 111.547 90.5734V105.991C111.547 106.844 110.856 107.537 110.001 107.537Z" fill="white"/>
</g>
<defs>
<clipPath id="clip0_1705_39">
<rect width="220" height="198.173" fill="white"/>
</clipPath>
</defs>
</svg>
