<svg width="220" height="199" viewBox="0 0 220 199" fill="none" xmlns="http://www.w3.org/2000/svg">
<g clip-path="url(#clip0_1700_189)">
<path d="M31.4357 57.4481L67.7984 38.3555C50.6562 59.3046 46.4505 70.3371 45.9632 91.9294C45.1393 128.464 74.1235 160.11 110.659 160.842C147.725 161.584 177.726 133.638 177.726 96.7596C177.726 82.0259 172.889 68.4238 164.719 57.4481H188.628L202.239 141.636C206.932 170.666 184.694 197.07 155.287 197.379L69.0661 198.288C39.4282 198.6 16.571 172.278 21.0342 142.977L31.4357 57.4481Z" fill="white"/>
<path d="M190.501 59.4075C189.429 59.4075 188.373 59.4735 187.331 59.5909C177.619 26.0614 146.676 1.54541 110 1.54541C73.322 1.54541 42.3773 26.0614 32.6654 59.5909C31.6275 59.4735 30.5699 59.4075 29.499 59.4075C14.0616 59.4075 1.54639 71.9129 1.54639 87.3442C1.54639 102.773 14.0616 115.278 29.499 115.278C31.8507 115.278 34.1337 114.984 36.3138 114.438C48.7934 142.717 77.0866 162.456 109.999 162.456C142.908 162.456 171.202 142.717 183.683 114.438C185.865 114.984 188.148 115.278 190.5 115.278C205.936 115.278 218.451 102.773 218.451 87.3442C218.453 71.9129 205.939 59.4075 190.501 59.4075Z" fill="#282A2E"/>
<path d="M32.4791 100.122C32.0618 100.122 31.6459 99.9548 31.3408 99.6223L14.1988 80.9961C13.6204 80.3692 13.6613 79.3913 14.2912 78.8133C14.9184 78.2339 15.8982 78.2749 16.4765 78.9057L33.6173 97.5319C34.1956 98.1587 34.1547 99.1366 33.5249 99.7146C33.2278 99.9878 32.8528 100.122 32.4791 100.122Z" fill="white"/>
<path d="M184.179 100.122C183.806 100.122 183.429 99.9878 183.133 99.7146C182.505 99.1366 182.464 98.1587 183.041 97.5319L200.182 78.9057C200.758 78.2762 201.739 78.2353 202.366 78.8133C202.994 79.3913 203.035 80.3692 202.458 80.9961L185.317 99.6223C185.012 99.9548 184.597 100.122 184.179 100.122Z" fill="white"/>
<path d="M153.911 91.5834C153.993 97.4455 149.302 102.265 143.44 102.347C137.574 102.429 132.752 97.7438 132.67 91.8817C132.588 86.0183 137.276 81.2014 143.141 81.1182C149.004 81.0364 153.829 85.72 153.911 91.5834Z" fill="white"/>
<path d="M121.649 94.1433C121.355 94.1433 121.058 94.0589 120.794 93.8833C120.083 93.4109 119.89 92.4515 120.364 91.7402C125.353 84.2509 133.697 79.7032 142.683 79.5792C142.808 79.5765 142.937 79.5752 143.064 79.5752C151.909 79.5752 160.209 83.8669 165.334 91.1093C165.826 91.8061 165.661 92.7708 164.964 93.2644C164.265 93.7566 163.303 93.5904 162.808 92.8949C158.199 86.3795 150.675 82.5854 142.725 82.6686C134.759 82.7807 127.361 86.8124 122.937 93.4544C122.638 93.9005 122.15 94.1433 121.649 94.1433Z" fill="white"/>
<path d="M88.19 91.5834C88.2719 97.4455 83.5817 102.265 77.7189 102.347C71.8534 102.429 67.0312 97.7438 66.9493 91.8817C66.8674 86.0183 71.555 81.2014 77.4205 81.1182C83.2833 81.0364 88.1082 85.72 88.19 91.5834Z" fill="white"/>
<path d="M55.929 94.1433C55.6345 94.1433 55.3374 94.0589 55.0733 93.8833C54.3629 93.4109 54.1701 92.4515 54.6442 91.7402C59.6328 84.2509 67.9767 79.7032 76.9624 79.5792C77.0891 79.5765 77.2172 79.5752 77.344 79.5752C86.187 79.5752 94.4887 83.8669 99.6134 91.1093C100.106 91.8061 99.9395 92.7708 99.2436 93.2644C98.5451 93.7566 97.5812 93.5904 97.0874 92.8949C92.479 86.3795 84.9181 82.5854 77.0046 82.6686C69.0384 82.7807 61.6412 86.8124 57.2164 93.4544C56.918 93.9005 56.4281 94.1433 55.929 94.1433Z" fill="white"/>
<path d="M110.001 111.38C109.148 111.38 108.455 110.687 108.455 109.835V98.3139C108.455 97.4614 109.148 96.7686 110.001 96.7686C110.854 96.7686 111.548 97.4614 111.548 98.3139V109.835C111.549 110.687 110.856 111.38 110.001 111.38Z" fill="white"/>
<path d="M109.744 124.403C106.322 124.403 99.8457 123.371 97.0873 121.51C96.3795 121.032 96.1933 120.072 96.6713 119.364C97.1506 118.657 98.1119 118.473 98.8184 118.949C100.758 120.258 106.381 121.312 109.744 121.312C113.32 121.312 119.071 120.139 121.129 118.627C121.818 118.118 122.786 118.266 123.29 118.954C123.797 119.641 123.649 120.609 122.961 121.114C120.047 123.26 113.412 124.403 109.744 124.403Z" fill="white"/>
<path d="M157.212 85.2272C156.913 85.2272 156.615 85.1415 156.349 84.962C155.64 84.4856 155.454 83.5248 155.932 82.8175L161.012 75.2873C161.488 74.5773 162.45 74.3912 163.157 74.8703C163.867 75.3467 164.053 76.3074 163.575 77.0148L158.495 84.545C158.197 84.9884 157.708 85.2272 157.212 85.2272Z" fill="white"/>
<path d="M161.862 90.6552C161.425 90.6552 160.991 90.4718 160.685 90.1128C160.129 89.4649 160.206 88.4896 160.855 87.9353L166.845 82.8149C167.492 82.2567 168.471 82.3359 169.024 82.9851C169.58 83.6331 169.503 84.6084 168.853 85.164L162.864 90.2844C162.575 90.5338 162.216 90.6552 161.862 90.6552Z" fill="white"/>
<path d="M58.331 90.6662C57.9771 90.6662 57.6179 90.5447 57.3274 90.2953L51.3379 85.1749C50.6882 84.6193 50.6116 83.6454 51.1676 82.9974C51.7208 82.3494 52.6993 82.2689 53.3463 82.8272L59.3358 87.9476C59.9855 88.5032 60.0621 89.4771 59.5062 90.1264C59.2012 90.4827 58.7681 90.6662 58.331 90.6662Z" fill="white"/>
<path d="M62.5854 85.2275C62.0889 85.2275 61.6004 84.9886 61.3033 84.5452L56.2235 77.015C55.7455 76.3077 55.9317 75.3469 56.6408 74.8705C57.3512 74.3901 58.3098 74.5788 58.7865 75.2875L63.8663 82.8177C64.3443 83.5251 64.1581 84.4858 63.449 84.9622C63.1823 85.1417 62.8812 85.2275 62.5854 85.2275Z" fill="white"/>
<path d="M190.501 57.8608C189.824 57.8608 189.145 57.8858 188.452 57.936C177.965 23.7598 145.89 0 110 0C74.1102 0 42.0339 23.7598 31.5455 57.936C30.8523 57.8872 30.167 57.8608 29.5002 57.8608C13.2335 57.8608 0 71.0881 0 87.3441C0 103.599 13.2335 116.823 29.5002 116.823C31.4874 116.823 33.4747 116.622 35.425 116.224C48.7945 145.289 77.9263 164.001 110 164.001C142.072 164.001 171.204 145.289 184.574 116.223C186.527 116.622 188.514 116.823 190.5 116.823C206.765 116.823 219.999 103.6 219.999 87.3441C220 71.0881 206.766 57.8608 190.501 57.8608ZM187.918 61.1191C187.918 61.1191 189.527 60.9528 190.501 60.9528C205.062 60.9528 216.906 72.7905 216.906 87.3441C216.906 101.895 205.06 113.731 190.501 113.731C188.334 113.731 186.169 113.465 184.06 112.937L182.796 112.62L182.271 113.812C169.642 142.422 141.275 160.908 110.001 160.908C78.7252 160.908 50.358 142.423 37.7292 113.812L37.2036 112.62L35.94 112.937C33.8325 113.465 31.667 113.731 29.5002 113.731C14.9382 113.731 3.09381 101.895 3.09381 87.3441C3.09381 72.7905 14.9382 60.9528 29.5002 60.9528C30.4628 60.9528 31.4689 61.0109 32.491 61.127L37.7292 69.6789L134.493 57.8608L143.811 31.7044L151.395 61.1138" fill="white"/>
<path d="M156.091 108.433C157.295 108.433 158.271 107.457 158.271 106.254C158.271 105.05 157.295 104.074 156.091 104.074C154.888 104.074 153.912 105.05 153.912 106.254C153.912 107.457 154.888 108.433 156.091 108.433Z" fill="white"/>
</g>
<defs>
<clipPath id="clip0_1700_189">
<rect width="220" height="199" fill="white"/>
</clipPath>
</defs>
</svg>
