<svg width="220" height="188" viewBox="0 0 220 188" fill="none" xmlns="http://www.w3.org/2000/svg">
<g clip-path="url(#clip0_1700_65)">
<path d="M110 187.22C77.9246 187.22 48.7934 168.498 35.4231 139.415C33.4723 139.814 31.4852 140.016 29.4982 140.016C13.2332 140.016 0 126.785 0 110.52C0 94.2541 13.2332 81.0208 29.4982 81.0208C30.1637 81.0208 30.848 81.0464 31.5444 81.0961C42.0323 46.9005 74.1091 23.127 110 23.127C145.89 23.127 177.964 46.9005 188.453 81.0961C189.148 81.0464 189.826 81.0208 190.503 81.0208C206.768 81.0208 220 94.2554 220 110.52C220 126.785 206.768 140.016 190.503 140.016C188.516 140.016 186.528 139.814 184.576 139.415C171.205 168.498 142.074 187.22 110 187.22ZM37.2031 135.813L37.7288 137.006C50.3557 165.631 78.7232 184.128 110 184.128C141.276 184.128 169.643 165.631 182.27 137.006L182.796 135.813L184.059 136.129C186.169 136.657 188.336 136.924 190.502 136.924C205.062 136.924 216.908 125.079 216.908 110.52C216.908 95.9588 205.062 84.113 190.502 84.113C189.53 84.113 188.548 84.1695 187.505 84.2865L186.21 84.4317L185.847 83.1787C176.138 49.6418 144.948 26.2178 110 26.2178C75.0502 26.2178 43.8594 49.6418 34.1499 83.1787L33.7869 84.4317L32.4922 84.2865C31.4651 84.1708 30.4581 84.113 29.4982 84.113C14.938 84.113 3.09219 95.9588 3.09219 110.52C3.09219 125.079 14.938 136.924 29.4995 136.924C31.6654 136.924 33.8313 136.657 35.9393 136.129L37.2031 135.813Z" fill="white"/>
<path d="M32.4786 123.307C32.0605 123.307 31.6451 123.139 31.3399 122.807L14.1984 104.171C13.6203 103.543 13.6606 102.566 14.2898 101.986C14.9177 101.407 15.8964 101.448 16.4745 102.077L33.616 120.714C34.1941 121.342 34.1538 122.319 33.5246 122.899C33.2275 123.172 32.8524 123.307 32.4786 123.307Z" fill="white"/>
<path d="M184.178 123.307C183.804 123.307 183.429 123.171 183.132 122.898C182.502 122.319 182.462 121.341 183.04 120.713L200.183 102.077C200.76 101.446 201.739 101.406 202.368 101.986C202.997 102.565 203.037 103.542 202.459 104.17L185.316 122.807C185.011 123.139 184.596 123.307 184.178 123.307Z" fill="white"/>
<path d="M155.902 114.763C155.984 120.629 151.294 125.45 145.43 125.533C139.565 125.615 134.742 120.927 134.66 115.061C134.578 109.194 139.266 104.374 145.132 104.291C150.995 104.209 155.82 108.896 155.902 114.763Z" fill="white"/>
<path d="M123.64 117.324C123.346 117.324 123.049 117.24 122.785 117.064C122.074 116.591 121.882 115.632 122.355 114.92C127.343 107.427 135.686 102.878 144.673 102.753C153.69 102.57 162.127 106.939 167.324 114.289C167.817 114.987 167.652 115.951 166.954 116.446C166.257 116.939 165.291 116.771 164.799 116.076C160.19 109.557 152.714 105.755 144.716 105.845C136.75 105.958 129.353 109.991 124.928 116.635C124.631 117.08 124.141 117.324 123.64 117.324Z" fill="white"/>
<path d="M86.1981 114.762C86.2802 120.628 81.5894 125.449 75.7264 125.532C69.8606 125.614 65.0381 120.926 64.9561 115.06C64.8741 109.193 69.5622 104.373 75.4279 104.29C81.291 104.208 86.1161 108.895 86.1981 114.762Z" fill="white"/>
<path d="M53.9373 117.323C53.6428 117.323 53.3457 117.24 53.0822 117.064C52.371 116.59 52.1787 115.632 52.652 114.919C57.6412 107.427 65.9847 102.877 74.9695 102.752C75.0973 102.749 75.225 102.748 75.3527 102.748C84.1977 102.748 92.4982 107.042 97.6218 114.289C98.1153 114.986 97.9499 115.95 97.2521 116.445C96.5544 116.94 95.5904 116.77 95.097 116.075C90.4883 109.556 82.9877 105.754 75.0139 105.844C67.0481 105.957 59.6511 109.99 55.2266 116.635C54.9268 117.08 54.436 117.323 53.9373 117.323Z" fill="white"/>
<path d="M110.001 130.537C109.147 130.537 108.455 129.844 108.455 128.991V113.573C108.455 112.72 109.147 112.027 110.001 112.027C110.855 112.027 111.547 112.721 111.547 113.573V128.991C111.547 129.844 110.856 130.537 110.001 130.537Z" fill="white"/>
<path d="M157.212 108.403C156.915 108.403 156.614 108.318 156.349 108.138C155.641 107.662 155.454 106.701 155.931 105.993L161.011 98.4583C161.488 97.7485 162.449 97.5602 163.156 98.0402C163.865 98.5161 164.052 99.4774 163.574 100.186L158.495 107.72C158.197 108.164 157.709 108.403 157.212 108.403Z" fill="white"/>
<path d="M163.852 111.842C163.415 111.842 162.982 111.658 162.676 111.3C162.121 110.652 162.197 109.676 162.845 109.121L168.835 103.997C169.484 103.442 170.459 103.518 171.015 104.168C171.571 104.816 171.494 105.792 170.846 106.347L164.857 111.471C164.565 111.721 164.209 111.842 163.852 111.842Z" fill="white"/>
<path d="M57.0617 111.842C56.7054 111.842 56.3492 111.719 56.0574 111.471L50.068 106.347C49.42 105.792 49.3433 104.816 49.8986 104.168C50.4552 103.517 51.4299 103.443 52.0792 103.997L58.0687 109.121C58.7167 109.676 58.7933 110.652 58.2381 111.3C57.9316 111.659 57.4986 111.842 57.0617 111.842Z" fill="white"/>
<path d="M62.5845 108.403C62.087 108.403 61.6004 108.164 61.3006 107.72L56.2213 100.186C55.744 99.4788 55.9309 98.5175 56.6394 98.0402C57.3466 97.5602 58.3078 97.7485 58.7851 98.4583L63.8644 105.993C64.3417 106.7 64.1548 107.661 63.4463 108.138C63.1828 108.317 62.8816 108.403 62.5845 108.403Z" fill="white"/>
<path d="M103.746 71.3528C104.949 71.3528 105.925 70.3771 105.925 69.1735C105.925 67.9699 104.949 66.9941 103.746 66.9941C102.542 66.9941 101.566 67.9699 101.566 69.1735C101.566 70.3771 102.542 71.3528 103.746 71.3528Z" fill="white"/>
<path d="M120.468 143.117C120.468 149.019 115.683 153.804 109.781 153.804C103.879 153.804 99.0938 149.019 99.0938 143.117" fill="#979797"/>
<path d="M170.807 86.2896L170.956 96.1551L188.519 83.6505L188.523 82.6825L188.646 55.5331C188.646 36.4193 173.73 21.1667 154.615 21.1667C151.611 21.1667 148.713 21.5889 145.934 22.3081C134.084 8.65007 116.613 0 97.1108 0C63.1371 0 38.5945 26.0981 32.6978 59.5247C32.1667 62.2256 31.7392 65.1363 31.43 68.2366C22.3941 133.589 47.1276 179.18 47.1276 179.18C21.6788 46.2874 143.658 33.6336 143.658 33.6336C143.658 33.6336 172.001 47.0457 170.807 86.2896Z" fill="white"/>
<path d="M191.617 164.771C196.232 164.771 199.973 161.03 199.973 156.415C199.973 151.801 196.232 148.06 191.617 148.06C187.003 148.06 183.262 151.801 183.262 156.415C183.262 161.03 187.003 164.771 191.617 164.771Z" fill="white"/>
<path d="M191.804 153.789C190.95 153.789 190.258 153.096 190.258 152.243V132.535C190.258 131.682 190.95 130.989 191.804 130.989C192.658 130.989 193.35 131.683 193.35 132.535V152.242C193.35 153.096 192.658 153.789 191.804 153.789Z" fill="#979797"/>
</g>
<defs>
<clipPath id="clip0_1700_65">
<rect width="220" height="187.22" fill="white"/>
</clipPath>
</defs>
</svg>
