<svg version="1.1" xmlns="http://www.w3.org/2000/svg" width="300px" height="300px" viewBox="0 0 322 322"  preserveAspectRatio="xMinYMin meet"><rect width="100%" height="100%" fill="#454948" cx="0" cy="0"/><path d="M14,14l14,0 0,14 -14,0 0,-14z M28,14l14,0 0,14 -14,0 0,-14z M42,14l14,0 0,14 -14,0 0,-14z M56,14l14,0 0,14 -14,0 0,-14z M70,14l14,0 0,14 -14,0 0,-14z M84,14l14,0 0,14 -14,0 0,-14z M98,14l14,0 0,14 -14,0 0,-14z M126,14l14,0 0,14 -14,0 0,-14z M182,14l14,0 0,14 -14,0 0,-14z M210,14l14,0 0,14 -14,0 0,-14z M224,14l14,0 0,14 -14,0 0,-14z M238,14l14,0 0,14 -14,0 0,-14z M252,14l14,0 0,14 -14,0 0,-14z M266,14l14,0 0,14 -14,0 0,-14z M280,14l14,0 0,14 -14,0 0,-14z M294,14l14,0 0,14 -14,0 0,-14z M14,28l14,0 0,14 -14,0 0,-14z M98,28l14,0 0,14 -14,0 0,-14z M154,28l14,0 0,14 -14,0 0,-14z M182,28l14,0 0,14 -14,0 0,-14z M210,28l14,0 0,14 -14,0 0,-14z M294,28l14,0 0,14 -14,0 0,-14z M14,42l14,0 0,14 -14,0 0,-14z M42,42l14,0 0,14 -14,0 0,-14z M56,42l14,0 0,14 -14,0 0,-14z M70,42l14,0 0,14 -14,0 0,-14z M98,42l14,0 0,14 -14,0 0,-14z M168,42l14,0 0,14 -14,0 0,-14z M182,42l14,0 0,14 -14,0 0,-14z M210,42l14,0 0,14 -14,0 0,-14z M238,42l14,0 0,14 -14,0 0,-14z M252,42l14,0 0,14 -14,0 0,-14z M266,42l14,0 0,14 -14,0 0,-14z M294,42l14,0 0,14 -14,0 0,-14z M14,56l14,0 0,14 -14,0 0,-14z M42,56l14,0 0,14 -14,0 0,-14z M56,56l14,0 0,14 -14,0 0,-14z M70,56l14,0 0,14 -14,0 0,-14z M98,56l14,0 0,14 -14,0 0,-14z M154,56l14,0 0,14 -14,0 0,-14z M182,56l14,0 0,14 -14,0 0,-14z M210,56l14,0 0,14 -14,0 0,-14z M238,56l14,0 0,14 -14,0 0,-14z M252,56l14,0 0,14 -14,0 0,-14z M266,56l14,0 0,14 -14,0 0,-14z M294,56l14,0 0,14 -14,0 0,-14z M14,70l14,0 0,14 -14,0 0,-14z M42,70l14,0 0,14 -14,0 0,-14z M56,70l14,0 0,14 -14,0 0,-14z M70,70l14,0 0,14 -14,0 0,-14z M98,70l14,0 0,14 -14,0 0,-14z M140,70l14,0 0,14 -14,0 0,-14z M168,70l14,0 0,14 -14,0 0,-14z M182,70l14,0 0,14 -14,0 0,-14z M210,70l14,0 0,14 -14,0 0,-14z M238,70l14,0 0,14 -14,0 0,-14z M252,70l14,0 0,14 -14,0 0,-14z M266,70l14,0 0,14 -14,0 0,-14z M294,70l14,0 0,14 -14,0 0,-14z M14,84l14,0 0,14 -14,0 0,-14z M98,84l14,0 0,14 -14,0 0,-14z M140,84l14,0 0,14 -14,0 0,-14z M154,84l14,0 0,14 -14,0 0,-14z M210,84l14,0 0,14 -14,0 0,-14z M294,84l14,0 0,14 -14,0 0,-14z M14,98l14,0 0,14 -14,0 0,-14z M28,98l14,0 0,14 -14,0 0,-14z M42,98l14,0 0,14 -14,0 0,-14z M56,98l14,0 0,14 -14,0 0,-14z M70,98l14,0 0,14 -14,0 0,-14z M84,98l14,0 0,14 -14,0 0,-14z M98,98l14,0 0,14 -14,0 0,-14z M126,98l14,0 0,14 -14,0 0,-14z M154,98l14,0 0,14 -14,0 0,-14z M182,98l14,0 0,14 -14,0 0,-14z M210,98l14,0 0,14 -14,0 0,-14z M224,98l14,0 0,14 -14,0 0,-14z M238,98l14,0 0,14 -14,0 0,-14z M252,98l14,0 0,14 -14,0 0,-14z M266,98l14,0 0,14 -14,0 0,-14z M280,98l14,0 0,14 -14,0 0,-14z M294,98l14,0 0,14 -14,0 0,-14z M126,112l14,0 0,14 -14,0 0,-14z M14,126l14,0 0,14 -14,0 0,-14z M28,126l14,0 0,14 -14,0 0,-14z M56,126l14,0 0,14 -14,0 0,-14z M70,126l14,0 0,14 -14,0 0,-14z M98,126l14,0 0,14 -14,0 0,-14z M154,126l14,0 0,14 -14,0 0,-14z M168,126l14,0 0,14 -14,0 0,-14z M210,126l14,0 0,14 -14,0 0,-14z M294,126l14,0 0,14 -14,0 0,-14z M42,140l14,0 0,14 -14,0 0,-14z M70,140l14,0 0,14 -14,0 0,-14z M84,140l14,0 0,14 -14,0 0,-14z M112,140l14,0 0,14 -14,0 0,-14z M140,140l14,0 0,14 -14,0 0,-14z M154,140l14,0 0,14 -14,0 0,-14z M182,140l14,0 0,14 -14,0 0,-14z M196,140l14,0 0,14 -14,0 0,-14z M252,140l14,0 0,14 -14,0 0,-14z M266,140l14,0 0,14 -14,0 0,-14z M14,154l14,0 0,14 -14,0 0,-14z M56,154l14,0 0,14 -14,0 0,-14z M98,154l14,0 0,14 -14,0 0,-14z M112,154l14,0 0,14 -14,0 0,-14z M140,154l14,0 0,14 -14,0 0,-14z M154,154l14,0 0,14 -14,0 0,-14z M168,154l14,0 0,14 -14,0 0,-14z M182,154l14,0 0,14 -14,0 0,-14z M210,154l14,0 0,14 -14,0 0,-14z M266,154l14,0 0,14 -14,0 0,-14z M280,154l14,0 0,14 -14,0 0,-14z M294,154l14,0 0,14 -14,0 0,-14z M14,168l14,0 0,14 -14,0 0,-14z M42,168l14,0 0,14 -14,0 0,-14z M56,168l14,0 0,14 -14,0 0,-14z M112,168l14,0 0,14 -14,0 0,-14z M154,168l14,0 0,14 -14,0 0,-14z M224,168l14,0 0,14 -14,0 0,-14z M238,168l14,0 0,14 -14,0 0,-14z M266,168l14,0 0,14 -14,0 0,-14z M28,182l14,0 0,14 -14,0 0,-14z M56,182l14,0 0,14 -14,0 0,-14z M70,182l14,0 0,14 -14,0 0,-14z M98,182l14,0 0,14 -14,0 0,-14z M126,182l14,0 0,14 -14,0 0,-14z M140,182l14,0 0,14 -14,0 0,-14z M154,182l14,0 0,14 -14,0 0,-14z M182,182l14,0 0,14 -14,0 0,-14z M196,182l14,0 0,14 -14,0 0,-14z M224,182l14,0 0,14 -14,0 0,-14z M238,182l14,0 0,14 -14,0 0,-14z M280,182l14,0 0,14 -14,0 0,-14z M294,182l14,0 0,14 -14,0 0,-14z M126,196l14,0 0,14 -14,0 0,-14z M154,196l14,0 0,14 -14,0 0,-14z M196,196l14,0 0,14 -14,0 0,-14z M210,196l14,0 0,14 -14,0 0,-14z M238,196l14,0 0,14 -14,0 0,-14z M266,196l14,0 0,14 -14,0 0,-14z M294,196l14,0 0,14 -14,0 0,-14z M14,210l14,0 0,14 -14,0 0,-14z M28,210l14,0 0,14 -14,0 0,-14z M42,210l14,0 0,14 -14,0 0,-14z M56,210l14,0 0,14 -14,0 0,-14z M70,210l14,0 0,14 -14,0 0,-14z M84,210l14,0 0,14 -14,0 0,-14z M98,210l14,0 0,14 -14,0 0,-14z M140,210l14,0 0,14 -14,0 0,-14z M154,210l14,0 0,14 -14,0 0,-14z M168,210l14,0 0,14 -14,0 0,-14z M182,210l14,0 0,14 -14,0 0,-14z M196,210l14,0 0,14 -14,0 0,-14z M238,210l14,0 0,14 -14,0 0,-14z M14,224l14,0 0,14 -14,0 0,-14z M98,224l14,0 0,14 -14,0 0,-14z M168,224l14,0 0,14 -14,0 0,-14z M196,224l14,0 0,14 -14,0 0,-14z M210,224l14,0 0,14 -14,0 0,-14z M252,224l14,0 0,14 -14,0 0,-14z M266,224l14,0 0,14 -14,0 0,-14z M280,224l14,0 0,14 -14,0 0,-14z M294,224l14,0 0,14 -14,0 0,-14z M14,238l14,0 0,14 -14,0 0,-14z M42,238l14,0 0,14 -14,0 0,-14z M56,238l14,0 0,14 -14,0 0,-14z M70,238l14,0 0,14 -14,0 0,-14z M98,238l14,0 0,14 -14,0 0,-14z M126,238l14,0 0,14 -14,0 0,-14z M140,238l14,0 0,14 -14,0 0,-14z M238,238l14,0 0,14 -14,0 0,-14z M280,238l14,0 0,14 -14,0 0,-14z M14,252l14,0 0,14 -14,0 0,-14z M42,252l14,0 0,14 -14,0 0,-14z M56,252l14,0 0,14 -14,0 0,-14z M70,252l14,0 0,14 -14,0 0,-14z M98,252l14,0 0,14 -14,0 0,-14z M126,252l14,0 0,14 -14,0 0,-14z M140,252l14,0 0,14 -14,0 0,-14z M154,252l14,0 0,14 -14,0 0,-14z M168,252l14,0 0,14 -14,0 0,-14z M252,252l14,0 0,14 -14,0 0,-14z M266,252l14,0 0,14 -14,0 0,-14z M14,266l14,0 0,14 -14,0 0,-14z M42,266l14,0 0,14 -14,0 0,-14z M56,266l14,0 0,14 -14,0 0,-14z M70,266l14,0 0,14 -14,0 0,-14z M98,266l14,0 0,14 -14,0 0,-14z M154,266l14,0 0,14 -14,0 0,-14z M182,266l14,0 0,14 -14,0 0,-14z M196,266l14,0 0,14 -14,0 0,-14z M238,266l14,0 0,14 -14,0 0,-14z M280,266l14,0 0,14 -14,0 0,-14z M294,266l14,0 0,14 -14,0 0,-14z M14,280l14,0 0,14 -14,0 0,-14z M98,280l14,0 0,14 -14,0 0,-14z M126,280l14,0 0,14 -14,0 0,-14z M140,280l14,0 0,14 -14,0 0,-14z M154,280l14,0 0,14 -14,0 0,-14z M182,280l14,0 0,14 -14,0 0,-14z M210,280l14,0 0,14 -14,0 0,-14z M224,280l14,0 0,14 -14,0 0,-14z M238,280l14,0 0,14 -14,0 0,-14z M252,280l14,0 0,14 -14,0 0,-14z M266,280l14,0 0,14 -14,0 0,-14z M280,280l14,0 0,14 -14,0 0,-14z M294,280l14,0 0,14 -14,0 0,-14z M14,294l14,0 0,14 -14,0 0,-14z M28,294l14,0 0,14 -14,0 0,-14z M42,294l14,0 0,14 -14,0 0,-14z M56,294l14,0 0,14 -14,0 0,-14z M70,294l14,0 0,14 -14,0 0,-14z M84,294l14,0 0,14 -14,0 0,-14z M98,294l14,0 0,14 -14,0 0,-14z M126,294l14,0 0,14 -14,0 0,-14z M154,294l14,0 0,14 -14,0 0,-14z M168,294l14,0 0,14 -14,0 0,-14z M196,294l14,0 0,14 -14,0 0,-14z M210,294l14,0 0,14 -14,0 0,-14z " stroke="transparent" fill="#dec0d1"/></svg>