<svg width="101" height="88" viewBox="0 0 101 88" fill="none" xmlns="http://www.w3.org/2000/svg">
	<g clip-path="url(#path)">
	<path fill-rule="evenodd" clip-rule="evenodd" d="M45.6786 0L95.173 7.77543L87.5911 55.6097L72.5912 32.3714L59.4853 52.6743L37.8694 49.28L45.6786 0ZM34.9969 27.0914C30.2834 25.1284 25.0828 24.6351 20.0818 25.6766C15.0808 26.7182 10.5148 29.2457 6.98686 32.9253C3.45887 36.6049 1.13488 41.2634 0.321817 46.2857C-0.491242 51.3079 0.244886 56.4576 2.43297 61.0546C4.62106 65.6515 8.15817 69.4795 12.5771 72.0329C16.9961 74.5863 22.089 75.7451 27.1833 75.3561C32.2775 74.9671 37.1335 73.0486 41.1097 69.8541C45.0859 66.6597 47.9954 62.3394 49.4538 57.464L30.6472 54.5097L34.9969 27.0851V27.0914ZM44.1824 88L72.5912 44L101 88H44.1824Z" fill="#2B2B2B"/>
	</g>
	<defs>
		<clipPath id="path">
			<rect width="101" height="88" fill="white"/>
		</clipPath>
	</defs>
</svg>
