<svg width="88" height="88" viewBox="0 0 88 88" fill="none" xmlns="http://www.w3.org/2000/svg">
    <g clip-path="url(#clip0_224_12)">
        <path fill-rule="evenodd" clip-rule="evenodd" d="M0.250002 12.7875C0.250002 5.8625 5.85625 0.25 12.7875 0.25H75.2125C82.1375 0.25 87.75 5.85625 87.75 12.7875V75.2125C87.7508 76.8592 87.4271 78.4899 86.7973 80.0114C86.1675 81.5329 85.2441 82.9153 84.0797 84.0797C82.9153 85.2441 81.5329 86.1675 80.0114 86.7973C78.4899 87.4271 76.8592 87.7508 75.2125 87.75H12.7875C11.1408 87.7508 9.51013 87.4271 7.98864 86.7973C6.46715 86.1675 5.0847 85.2441 3.92032 84.0797C2.75594 82.9153 1.83247 81.5329 1.20269 80.0114C0.572911 78.4899 0.24918 76.8592 0.250002 75.2125V12.7875ZM12.75 18.975V69.0313C12.75 72.4063 15.5375 75.25 18.9688 75.25H69.0313C72.4063 75.25 75.25 72.4625 75.25 69.0313V18.9687C75.25 15.5937 72.4625 12.75 69.0313 12.75H18.9688C15.5938 12.75 12.75 15.5375 12.75 18.9687V18.975ZM37.75 31.5C37.75 28.05 40.525 25.25 44 25.25H62.75C66.2 25.25 69 28.025 69 31.5C69 34.95 66.225 37.75 62.75 37.75H44C40.55 37.75 37.75 34.975 37.75 31.5ZM37.75 56.5C37.75 53.05 40.525 50.25 44 50.25H62.75C66.2 50.25 69 53.025 69 56.5C69 59.95 66.225 62.75 62.75 62.75H44C40.55 62.75 37.75 59.975 37.75 56.5ZM19 31.5C19 28.05 21.775 25.25 25.25 25.25C28.7 25.25 31.5 28.025 31.5 31.5C31.5 34.95 28.725 37.75 25.25 37.75C21.8 37.75 19 34.975 19 31.5ZM19 56.5C19 53.05 21.775 50.25 25.25 50.25C28.7 50.25 31.5 53.025 31.5 56.5C31.5 59.95 28.725 62.75 25.25 62.75C21.8 62.75 19 59.975 19 56.5Z" fill="#2B2B2B"/>
    </g>
    <defs>
        <clipPath id="clip0_224_12">
            <rect width="88" height="88" fill="white"/>
        </clipPath>
    </defs>
</svg>
