<svg width="88" height="88" viewBox="0 0 88 88" fill="none" xmlns="http://www.w3.org/2000/svg">
    <g clip-path="url(#path)">
        <path d="M44.0852 88.0006C55.3407 88.0006 66.6022 83.6673 75.1614 75.0037C92.2806 57.9041 92.2793 29.9219 75.1589 12.8237C58.0383 -4.27456 30.0189 -4.27456 12.8982 12.8237C4.57298 21.1374 0 32.2646 0 43.9719C0 55.7945 4.57481 66.8077 12.8982 75.1199C21.573 83.6666 32.8267 88.0006 44.0852 88.0006ZM23.4424 44.0575V53.1834V54.4056H24.664H33.6011H52.0419H53.2639V53.1834V34.7311V21.2424V20.0201H52.0419H42.9155H41.6936V21.2424V42.8351H24.664H23.4424V44.0575ZM11.5648 43.9719C11.5648 35.3067 14.9662 27.1918 21.1238 21.0427C33.7383 8.44404 54.359 8.42675 66.9963 20.9908C67.0139 21.0081 67.0302 21.0253 67.0485 21.0427C79.6777 33.6575 79.6796 54.2861 67.0485 66.9014C54.4157 79.5168 33.7562 79.5168 21.1238 66.9014C14.9662 60.7518 11.5648 52.6371 11.5648 43.9719Z" fill="#2B2B2B"/>
    </g>
    <defs>
        <clipPath id="path">
        <rect width="88" height="88" fill="white"/>
        </clipPath>
    </defs>
</svg>
